<svg width="24" height="24" viewBox="0 0 24 24" fill="none" xmlns="http://www.w3.org/2000/svg">
<g clip-path="url(#clip0_174_231)">
<mask id="path-1-inside-1_174_231" fill="white">
<path d="M15.4543 7.64447C15.8263 7.64447 16.1404 7.32218 16.1404 6.95875V5.1729C16.1404 4.79275 15.8263 4.48718 15.4547 4.48718C15.0746 4.48718 14.7604 4.79275 14.7604 5.1729V6.95833C14.7604 7.32175 15.0746 7.64404 15.4547 7.64404M10.6534 9.23147C10.926 9.50404 11.3807 9.4959 11.6366 9.23147C11.8851 8.96704 11.8929 8.53718 11.6366 8.27275L10.356 6.9999C10.2288 6.87289 10.0564 6.80155 9.87664 6.80155C9.69689 6.80155 9.52449 6.87289 9.39729 6.9999C9.27019 7.1287 9.19893 7.30237 9.19893 7.48333C9.19893 7.66428 9.27019 7.83795 9.39729 7.96675L10.6534 9.23147ZM19.2733 9.23147C19.5296 9.4959 19.9757 9.50404 20.2483 9.23147L21.5044 7.96718C21.6317 7.83836 21.703 7.6646 21.703 7.48354C21.703 7.30248 21.6317 7.12872 21.5044 6.9999C21.3772 6.87289 21.2048 6.80155 21.0251 6.80155C20.8453 6.80155 20.6729 6.87289 20.5457 6.9999L19.2729 8.27275C19.0089 8.53718 19.0174 8.96704 19.2733 9.23147ZM3.504 21.1736H12.4461C14.8346 21.1736 16.686 19.3638 16.686 17.0332V16.9668C18.3553 16.4216 19.5373 14.8839 19.5373 13.0496C19.5399 12.5123 19.4361 11.9799 19.232 11.4829C19.0278 10.9859 18.7274 10.5343 18.3479 10.154C17.9683 9.77366 17.5173 9.47223 17.0208 9.26705C16.5242 9.06187 15.992 8.95699 15.4547 8.95847C14.5851 8.95426 13.737 9.22889 13.035 9.74205C12.3329 10.2552 11.8138 10.9799 11.5539 11.8098C10.5621 10.6775 9.17357 10.0166 7.60328 10.0166C4.86771 10.0166 2.57871 12.132 2.30614 14.8509C0.925714 15.2812 0 16.4713 0 17.9756C0 19.8352 1.39671 21.1736 3.504 21.1736ZM15.4547 10.1658C17.0661 10.1658 18.3223 11.43 18.3223 13.05C18.3223 14.2895 17.5787 15.3309 16.4876 15.7526C15.9587 14.1738 14.463 13.0663 12.5786 12.9506C12.6283 11.3808 13.8763 10.1658 15.4547 10.1658ZM3.47057 19.8515C2.06571 19.8515 1.32171 19.0415 1.32171 18.0086C1.32171 17.1326 1.83429 16.3556 3.04886 16.0333C3.44571 15.9262 3.59486 15.7526 3.62743 15.3309C3.81771 13.0166 5.53671 11.3473 7.60286 11.3473C9.20614 11.3473 10.4541 12.2319 11.2226 13.7688C11.3961 14.1245 11.6027 14.2483 12.024 14.2483C14.1566 14.2483 15.3634 15.5375 15.3634 17.0748C15.3634 18.612 14.1069 19.8519 12.4706 19.8519L3.47057 19.8515ZM21.5366 13.7358H23.322C23.6936 13.7358 23.9996 13.4302 23.9996 13.05C23.9987 12.8706 23.927 12.6987 23.8001 12.5718C23.6733 12.4448 23.5015 12.3731 23.322 12.372H21.5366C21.165 12.372 20.8509 12.678 20.8509 13.05C20.8509 13.4302 21.165 13.7358 21.5366 13.7358ZM20.5457 19.1156C20.8101 19.38 21.24 19.3719 21.5044 19.107C21.7693 18.843 21.7693 18.405 21.5044 18.1488L20.2316 16.8845C19.9676 16.6282 19.5373 16.6196 19.2733 16.8845C19.1463 17.0133 19.0751 17.187 19.0751 17.3679C19.0751 17.5488 19.1463 17.7225 19.2733 17.8513L20.5457 19.1156Z"/>
</mask>
<path d="M15.4543 7.64447C15.8263 7.64447 16.1404 7.32218 16.1404 6.95875V5.1729C16.1404 4.79275 15.8263 4.48718 15.4547 4.48718C15.0746 4.48718 14.7604 4.79275 14.7604 5.1729V6.95833C14.7604 7.32175 15.0746 7.64404 15.4547 7.64404M10.6534 9.23147C10.926 9.50404 11.3807 9.4959 11.6366 9.23147C11.8851 8.96704 11.8929 8.53718 11.6366 8.27275L10.356 6.9999C10.2288 6.87289 10.0564 6.80155 9.87664 6.80155C9.69689 6.80155 9.52449 6.87289 9.39729 6.9999C9.27019 7.1287 9.19893 7.30237 9.19893 7.48333C9.19893 7.66428 9.27019 7.83795 9.39729 7.96675L10.6534 9.23147ZM19.2733 9.23147C19.5296 9.4959 19.9757 9.50404 20.2483 9.23147L21.5044 7.96718C21.6317 7.83836 21.703 7.6646 21.703 7.48354C21.703 7.30248 21.6317 7.12872 21.5044 6.9999C21.3772 6.87289 21.2048 6.80155 21.0251 6.80155C20.8453 6.80155 20.6729 6.87289 20.5457 6.9999L19.2729 8.27275C19.0089 8.53718 19.0174 8.96704 19.2733 9.23147ZM3.504 21.1736H12.4461C14.8346 21.1736 16.686 19.3638 16.686 17.0332V16.9668C18.3553 16.4216 19.5373 14.8839 19.5373 13.0496C19.5399 12.5123 19.4361 11.9799 19.232 11.4829C19.0278 10.9859 18.7274 10.5343 18.3479 10.154C17.9683 9.77366 17.5173 9.47223 17.0208 9.26705C16.5242 9.06187 15.992 8.95699 15.4547 8.95847C14.5851 8.95426 13.737 9.22889 13.035 9.74205C12.3329 10.2552 11.8138 10.9799 11.5539 11.8098C10.5621 10.6775 9.17357 10.0166 7.60328 10.0166C4.86771 10.0166 2.57871 12.132 2.30614 14.8509C0.925714 15.2812 0 16.4713 0 17.9756C0 19.8352 1.39671 21.1736 3.504 21.1736ZM15.4547 10.1658C17.0661 10.1658 18.3223 11.43 18.3223 13.05C18.3223 14.2895 17.5787 15.3309 16.4876 15.7526C15.9587 14.1738 14.463 13.0663 12.5786 12.9506C12.6283 11.3808 13.8763 10.1658 15.4547 10.1658ZM3.47057 19.8515C2.06571 19.8515 1.32171 19.0415 1.32171 18.0086C1.32171 17.1326 1.83429 16.3556 3.04886 16.0333C3.44571 15.9262 3.59486 15.7526 3.62743 15.3309C3.81771 13.0166 5.53671 11.3473 7.60286 11.3473C9.20614 11.3473 10.4541 12.2319 11.2226 13.7688C11.3961 14.1245 11.6027 14.2483 12.024 14.2483C14.1566 14.2483 15.3634 15.5375 15.3634 17.0748C15.3634 18.612 14.1069 19.8519 12.4706 19.8519L3.47057 19.8515ZM21.5366 13.7358H23.322C23.6936 13.7358 23.9996 13.4302 23.9996 13.05C23.9987 12.8706 23.927 12.6987 23.8001 12.5718C23.6733 12.4448 23.5015 12.3731 23.322 12.372H21.5366C21.165 12.372 20.8509 12.678 20.8509 13.05C20.8509 13.4302 21.165 13.7358 21.5366 13.7358ZM20.5457 19.1156C20.8101 19.38 21.24 19.3719 21.5044 19.107C21.7693 18.843 21.7693 18.405 21.5044 18.1488L20.2316 16.8845C19.9676 16.6282 19.5373 16.6196 19.2733 16.8845C19.1463 17.0133 19.0751 17.187 19.0751 17.3679C19.0751 17.5488 19.1463 17.7225 19.2733 17.8513L20.5457 19.1156Z" fill="#111827"/>
<path d="M10.6534 9.23147L10.2987 9.58382L10.2999 9.58502L10.6534 9.23147ZM11.6366 9.23147L11.9959 9.57919L12.0009 9.57393L11.6366 9.23147ZM11.6366 8.27275L11.9957 7.92471L11.9891 7.91813L11.6366 8.27275ZM10.356 6.9999L10.0027 7.35372L10.0035 7.35452L10.356 6.9999ZM9.39729 6.9999L9.04399 6.64607L9.04138 6.64871L9.39729 6.9999ZM9.19893 7.48333H8.69893H9.19893ZM9.39729 7.96675L9.04138 8.31794L9.04253 8.3191L9.39729 7.96675ZM19.2733 9.23147L18.914 9.57915L18.9142 9.57945L19.2733 9.23147ZM20.2483 9.23147L20.6018 9.58502L20.603 9.58388L20.2483 9.23147ZM21.5044 7.96718L21.8591 8.31959L21.8602 8.31852L21.5044 7.96718ZM21.703 7.48354H21.203H21.703ZM21.5044 6.9999L21.8602 6.64855L21.8577 6.64608L21.5044 6.9999ZM20.5457 6.9999L20.1924 6.64608L20.1922 6.64634L20.5457 6.9999ZM19.2729 8.27275L18.9193 7.9192L18.919 7.91949L19.2729 8.27275ZM16.686 16.9668L16.5308 16.4915L16.186 16.6041V16.9668H16.686ZM19.5373 13.0496L19.0373 13.0472V13.0496H19.5373ZM15.4547 8.95847L15.4523 9.45848L15.4561 9.45847L15.4547 8.95847ZM11.5539 11.8098L11.1777 12.1392L11.7647 12.8093L12.031 11.9592L11.5539 11.8098ZM2.30614 14.8509L2.45493 15.3282L2.77066 15.2298L2.80365 14.9008L2.30614 14.8509ZM16.4876 15.7526L16.0135 15.9114L16.1797 16.4077L16.6678 16.219L16.4876 15.7526ZM12.5786 12.9506L12.0788 12.9348L12.0635 13.4199L12.5479 13.4497L12.5786 12.9506ZM3.47057 19.8515L3.47059 19.3515H3.47057V19.8515ZM3.04886 16.0333L3.17709 16.5166L3.17918 16.516L3.04886 16.0333ZM3.62743 15.3309L3.1291 15.2899L3.12891 15.2924L3.62743 15.3309ZM11.2226 13.7688L11.672 13.5495L11.6698 13.5451L11.2226 13.7688ZM12.4706 19.8519L12.4705 20.3519H12.4706V19.8519ZM23.9996 13.05H24.4996L24.4996 13.0475L23.9996 13.05ZM23.322 12.372L23.3248 11.872H23.322V12.372ZM20.5457 19.1156L20.8993 18.7621L20.8981 18.7609L20.5457 19.1156ZM21.5044 19.107L21.1514 18.7529L21.1506 18.7538L21.5044 19.107ZM21.5044 18.1488L21.152 18.5035L21.1567 18.5081L21.5044 18.1488ZM20.2316 16.8845L20.584 16.5297L20.5798 16.5257L20.2316 16.8845ZM19.2733 16.8845L18.9192 16.5315L18.9172 16.5335L19.2733 16.8845ZM19.2733 17.8513L18.9171 18.2023L18.9209 18.206L19.2733 17.8513ZM15.4543 7.64447V8.14447C16.106 8.14447 16.6404 7.5947 16.6404 6.95875H16.1404H15.6404C15.6404 6.99557 15.6236 7.04374 15.5819 7.0857C15.5409 7.12708 15.4936 7.14447 15.4543 7.14447V7.64447ZM16.1404 6.95875H16.6404V5.1729H16.1404H15.6404V6.95875H16.1404ZM16.1404 5.1729H16.6404C16.6404 4.51256 16.0984 3.98718 15.4547 3.98718V4.48718V4.98718C15.5542 4.98718 15.6404 5.07295 15.6404 5.1729H16.1404ZM15.4547 4.48718V3.98718C14.8065 3.98718 14.2604 4.50856 14.2604 5.1729H14.7604H15.2604C15.2604 5.07694 15.3426 4.98718 15.4547 4.98718V4.48718ZM14.7604 5.1729H14.2604V6.95833H14.7604H15.2604V5.1729H14.7604ZM14.7604 6.95833H14.2604C14.2604 7.5981 14.7986 8.14404 15.4547 8.14404V7.64404V7.14404C15.4085 7.14404 15.3591 7.12442 15.3185 7.08384C15.277 7.04241 15.2604 6.99492 15.2604 6.95833H14.7604ZM10.6534 9.23147L10.2999 9.58502C10.7683 10.0534 11.5441 10.0461 11.9959 9.57915L11.6366 9.23147L11.2772 8.88379C11.2515 8.91038 11.2067 8.93252 11.1484 8.93285C11.0913 8.93317 11.0413 8.91225 11.007 8.87791L10.6534 9.23147ZM11.6366 9.23147L12.0009 9.57393C12.424 9.12381 12.4462 8.38966 11.9956 7.92477L11.6366 8.27275L11.2775 8.62074C11.3075 8.65163 11.3262 8.69601 11.3259 8.74933C11.3256 8.80373 11.3053 8.85389 11.2723 8.88901L11.6366 9.23147ZM11.6366 8.27275L11.9891 7.91813L10.7085 6.64528L10.356 6.9999L10.0035 7.35452L11.2841 8.62737L11.6366 8.27275ZM10.356 6.9999L10.7093 6.64608C10.4883 6.42546 10.1889 6.30155 9.87664 6.30155V6.80155V7.30155C9.92392 7.30155 9.96926 7.32031 10.0027 7.35372L10.356 6.9999ZM9.87664 6.80155V6.30155C9.56441 6.30155 9.26495 6.42546 9.044 6.64608L9.39729 6.9999L9.75057 7.35372C9.78402 7.32031 9.82937 7.30155 9.87664 7.30155V6.80155ZM9.39729 6.9999L9.04138 6.64871C8.82196 6.87109 8.69893 7.17092 8.69893 7.48333H9.19893H9.69893C9.69893 7.43382 9.71843 7.38632 9.75319 7.35108L9.39729 6.9999ZM9.19893 7.48333H8.69893C8.69893 7.79573 8.82196 8.09556 9.04138 8.31794L9.39729 7.96675L9.75319 7.61557C9.71843 7.58034 9.69893 7.53283 9.69893 7.48333H9.19893ZM9.39729 7.96675L9.04253 8.3191L10.2987 9.58382L10.6534 9.23147L11.0082 8.87912L9.75204 7.6144L9.39729 7.96675ZM19.2733 9.23147L18.9142 9.57945C19.3662 10.0458 20.1332 10.0536 20.6018 9.58502L20.2483 9.23147L19.8947 8.87791C19.8182 8.95447 19.6929 8.946 19.6323 8.88349L19.2733 9.23147ZM20.2483 9.23147L20.603 9.58388L21.8591 8.31959L21.5044 7.96718L21.1497 7.61477L19.8936 8.87906L20.2483 9.23147ZM21.5044 7.96718L21.8602 8.31852C22.0798 8.09612 22.203 7.79612 22.203 7.48354H21.703H21.203C21.203 7.53307 21.1835 7.5806 21.1487 7.61584L21.5044 7.96718ZM21.703 7.48354H22.203C22.203 7.17096 22.0798 6.87096 21.8602 6.64856L21.5044 6.9999L21.1487 7.35124C21.1835 7.38648 21.203 7.43401 21.203 7.48354H21.703ZM21.5044 6.9999L21.8577 6.64608C21.6368 6.42546 21.3373 6.30155 21.0251 6.30155V6.80155V7.30155C21.0723 7.30155 21.1177 7.32031 21.1511 7.35372L21.5044 6.9999ZM21.0251 6.80155V6.30155C20.7128 6.30155 20.4134 6.42546 20.1924 6.64608L20.5457 6.9999L20.899 7.35372C20.9325 7.32031 20.9778 7.30155 21.0251 7.30155V6.80155ZM20.5457 6.9999L20.1922 6.64634L18.9193 7.9192L19.2729 8.27275L19.6264 8.62631L20.8993 7.35345L20.5457 6.9999ZM19.2729 8.27275L18.919 7.91949C18.4529 8.38635 18.4778 9.12837 18.914 9.57915L19.2733 9.23147L19.6326 8.88379C19.5571 8.80571 19.5648 8.68801 19.6267 8.62602L19.2729 8.27275ZM3.504 21.1736V21.6736H12.4461V21.1736V20.6736H3.504V21.1736ZM12.4461 21.1736V21.6736C15.0996 21.6736 17.186 19.6509 17.186 17.0332H16.686H16.186C16.186 19.0766 14.5695 20.6736 12.4461 20.6736V21.1736ZM16.686 17.0332H17.186V16.9668H16.686H16.186V17.0332H16.686ZM16.686 16.9668L16.8412 17.442C18.709 16.8321 20.0373 15.1077 20.0373 13.0496H19.5373H19.0373C19.0373 14.6601 18.0016 16.0111 16.5308 16.4915L16.686 16.9668ZM19.5373 13.0496L20.0373 13.052C20.0402 12.4488 19.9237 11.8509 19.6945 11.2929L19.232 11.4829L18.7695 11.6729C18.9486 12.1088 19.0396 12.5759 19.0373 13.0472L19.5373 13.0496ZM19.232 11.4829L19.6945 11.2929C19.4653 10.7349 19.1279 10.2278 18.7018 9.80078L18.3479 10.154L17.9939 10.5071C18.3268 10.8407 18.5904 11.2369 18.7695 11.6729L19.232 11.4829ZM18.3479 10.154L18.7018 9.80078C18.2757 9.37377 17.7692 9.03533 17.2117 8.80495L17.0208 9.26705L16.8298 9.72915C17.2654 9.90914 17.661 10.1735 17.9939 10.5071L18.3479 10.154ZM17.0208 9.26705L17.2117 8.80495C16.6542 8.57457 16.0566 8.45681 15.4533 8.45847L15.4547 8.95847L15.4561 9.45847C15.9274 9.45717 16.3943 9.54917 16.8298 9.72915L17.0208 9.26705ZM15.4547 8.95847L15.4571 8.45847C14.4806 8.45375 13.5283 8.76214 12.7399 9.33839L13.035 9.74205L13.33 10.1457C13.9458 9.69564 14.6896 9.45477 15.4523 9.45846L15.4547 8.95847ZM13.035 9.74205L12.7399 9.33839C11.9516 9.91464 11.3686 10.7284 11.0767 11.6603L11.5539 11.8098L12.031 11.9592C12.259 11.2314 12.7143 10.5958 13.33 10.1457L13.035 9.74205ZM11.5539 11.8098L11.93 11.4803C10.8458 10.2425 9.32137 9.51661 7.60328 9.51661V10.0166V10.5166C9.02577 10.5166 10.2785 11.1125 11.1777 12.1392L11.5539 11.8098ZM7.60328 10.0166V9.51661C4.60533 9.51661 2.10627 11.8322 1.80864 14.801L2.30614 14.8509L2.80365 14.9008C3.05116 12.4319 5.1301 10.5166 7.60328 10.5166V10.0166ZM2.30614 14.8509L2.15735 14.3735C0.574803 14.8668 -0.5 16.2455 -0.5 17.9756H0H0.5C0.5 16.6972 1.27663 15.6955 2.45493 15.3282L2.30614 14.8509ZM0 17.9756H-0.5C-0.5 19.0363 -0.0987272 19.9716 0.622115 20.6389C1.34051 21.3039 2.34394 21.6736 3.504 21.6736V21.1736V20.6736C2.55677 20.6736 1.8082 20.3741 1.30142 19.905C0.797084 19.4382 0.5 18.7745 0.5 17.9756H0ZM15.4547 10.1658V10.6658C16.7872 10.6658 17.8223 11.7033 17.8223 13.05H18.3223H18.8223C18.8223 11.1567 17.3451 9.66575 15.4547 9.66575V10.1658ZM18.3223 13.05H17.8223C17.8223 14.0812 17.2073 14.9384 16.3073 15.2862L16.4876 15.7526L16.6678 16.219C17.9501 15.7234 18.8223 14.4977 18.8223 13.05H18.3223ZM16.4876 15.7526L16.9617 15.5938C16.3611 13.8007 14.6738 12.5783 12.6092 12.4516L12.5786 12.9506L12.5479 13.4497C14.2522 13.5543 15.5564 14.5468 16.0135 15.9114L16.4876 15.7526ZM12.5786 12.9506L13.0783 12.9664C13.1195 11.6659 14.1468 10.6658 15.4547 10.6658V10.1658V9.66575C13.6058 9.66575 12.1371 11.0956 12.0788 12.9348L12.5786 12.9506ZM3.47057 19.8515V19.3515C2.86371 19.3515 2.45695 19.1778 2.20726 18.9489C1.96008 18.7222 1.82171 18.4008 1.82171 18.0086H1.32171H0.821714C0.821714 18.6493 1.05535 19.2493 1.53138 19.6859C2.00491 20.1201 2.67257 20.3515 3.47057 20.3515V19.8515ZM1.32171 18.0086H1.82171C1.82171 17.6712 1.91881 17.3732 2.11764 17.1289C2.31777 16.883 2.64964 16.6566 3.17709 16.5166L3.04886 16.0333L2.92062 15.55C2.2335 15.7324 1.7018 16.0556 1.342 16.4977C0.980902 16.9415 0.821714 17.47 0.821714 18.0086H1.32171ZM3.04886 16.0333L3.17918 16.516C3.41986 16.4511 3.67267 16.3443 3.85935 16.1196C4.04598 15.8949 4.10619 15.6251 4.12594 15.3694L3.62743 15.3309L3.12891 15.2924C3.12267 15.3732 3.11218 15.4221 3.10296 15.4509C3.09859 15.4645 3.09492 15.4723 3.09292 15.476C3.09191 15.478 3.09119 15.4791 3.09081 15.4797C3.09044 15.4802 3.09023 15.4805 3.09015 15.4806C3.09007 15.4807 3.08987 15.4809 3.08945 15.4813C3.08901 15.4817 3.0881 15.4826 3.08652 15.4838C3.08341 15.4863 3.07678 15.4911 3.06469 15.4976C3.03906 15.5115 2.99451 15.5301 2.91853 15.5506L3.04886 16.0333ZM3.62743 15.3309L4.12575 15.3719C4.29754 13.2825 5.83013 11.8473 7.60286 11.8473V11.3473V10.8473C5.24329 10.8473 3.33789 12.7507 3.12911 15.2899L3.62743 15.3309ZM7.60286 11.3473V11.8473C8.98421 11.8473 10.076 12.5937 10.7754 13.9924L11.2226 13.7688L11.6698 13.5451C10.8323 11.8701 9.42807 10.8473 7.60286 10.8473V11.3473ZM11.2226 13.7688L10.7732 13.988C10.8832 14.2135 11.0334 14.4272 11.2736 14.5709C11.5097 14.7123 11.7703 14.7483 12.024 14.7483V14.2483V13.7483C11.8565 13.7483 11.8031 13.7225 11.7872 13.7129C11.7754 13.7059 11.7355 13.6797 11.6719 13.5495L11.2226 13.7688ZM12.024 14.2483V14.7483C12.9889 14.7483 13.697 15.0386 14.1579 15.4557C14.6174 15.8717 14.8634 16.4418 14.8634 17.0748H15.3634H15.8634C15.8634 16.1705 15.5061 15.3273 14.829 14.7144C14.1532 14.1027 13.1917 13.7483 12.024 13.7483V14.2483ZM15.3634 17.0748H14.8634C14.8634 18.3207 13.8461 19.3519 12.4706 19.3519V19.8519V20.3519C14.3676 20.3519 15.8634 18.9033 15.8634 17.0748H15.3634ZM12.4706 19.8519L12.4706 19.3519L3.47059 19.3515L3.47057 19.8515L3.47055 20.3515L12.4705 20.3519L12.4706 19.8519ZM21.5366 13.7358V14.2358H23.322V13.7358V13.2358H21.5366V13.7358ZM23.322 13.7358V14.2358C23.9734 14.2358 24.4996 13.7026 24.4996 13.05H23.9996H23.4996C23.4996 13.1577 23.4138 13.2358 23.322 13.2358V13.7358ZM23.9996 13.05L24.4996 13.0475C24.498 12.7364 24.3738 12.4384 24.1538 12.2183L23.8001 12.5718L23.4465 12.9252C23.4803 12.959 23.4993 13.0048 23.4996 13.0525L23.9996 13.05ZM23.8001 12.5718L24.1538 12.2183C23.9339 11.9982 23.636 11.8738 23.3248 11.872L23.322 12.372L23.3192 12.872C23.367 12.8723 23.4127 12.8914 23.4465 12.9252L23.8001 12.5718ZM23.322 12.372V11.872H21.5366V12.372V12.872H23.322V12.372ZM21.5366 12.372V11.872C20.8964 11.872 20.3509 12.3944 20.3509 13.05H20.8509H21.3509C21.3509 12.9617 21.4336 12.872 21.5366 12.872V12.372ZM20.8509 13.05H20.3509C20.3509 13.7104 20.8929 14.2358 21.5366 14.2358V13.7358V13.2358C21.4371 13.2358 21.3509 13.15 21.3509 13.05H20.8509ZM20.5457 19.1156L20.1922 19.4692C20.6597 19.9367 21.4064 19.9129 21.8583 19.4603L21.5044 19.107L21.1506 18.7538C21.0736 18.8309 20.9606 18.8234 20.8993 18.7621L20.5457 19.1156ZM21.5044 19.107L21.8574 19.4612C22.3153 19.0047 22.323 18.2451 21.8521 17.7894L21.5044 18.1488L21.1567 18.5081C21.2156 18.565 21.2232 18.6814 21.1514 18.7529L21.5044 19.107ZM21.5044 18.1488L21.8568 17.794L20.5839 16.5297L20.2316 16.8845L19.8792 17.2392L21.1521 18.5035L21.5044 18.1488ZM20.2316 16.8845L20.5798 16.5257C20.1293 16.0883 19.3857 16.0634 18.9192 16.5315L19.2733 16.8845L19.6274 17.2374C19.6888 17.1758 19.8058 17.168 19.8833 17.2432L20.2316 16.8845ZM19.2733 16.8845L18.9172 16.5335C18.698 16.7559 18.5751 17.0556 18.5751 17.3679H19.0751H19.5751C19.5751 17.3183 19.5946 17.2707 19.6294 17.2354L19.2733 16.8845ZM19.0751 17.3679H18.5751C18.5751 17.6802 18.698 17.9799 18.9172 18.2023L19.2733 17.8513L19.6294 17.5004C19.5946 17.465 19.5751 17.4175 19.5751 17.3679H19.0751ZM19.2733 17.8513L18.9209 18.206L20.1933 19.4703L20.5457 19.1156L20.8981 18.7609L19.6257 17.4966L19.2733 17.8513Z" fill="#2563EB" mask="url(#path-1-inside-1_174_231)"/>
</g>
<defs>
<clipPath id="clip0_174_231">
<rect width="24" height="24" fill="white"/>
</clipPath>
</defs>
</svg>
